<?xml version="1.0" encoding="UTF-8"?>
<svg id="Calque_1" data-name="Calque 1" xmlns="http://www.w3.org/2000/svg" viewBox="0 0 766.35 267.66">
    <defs>
        <style>
            .cls-1 {
            fill: #fff;
            }
        </style>
    </defs>
    <path class="cls-1" d="M244.73,89.87l8.98-3.99-5.99,5.49,5.49-2.48c3.47,2.38-1.81,2.91-2.5,4.48l1.99.99c-.94,1.73-3.85,1.74-4.76,2.81-.43.51.09,1.85-.88,2.74-1.76,1.61-5.96,1.91-6.19,2.15-.98.99-4.57,13.91-5.77,16.65-9.86,22.53-36.94,74.89-61.14,81.71-9.23,2.6-20.11,1.22-27.72-4.71-1.68-1.31-.5-3.37-3.98-3.07-1.78.15-1.35,1.69-2.26,2-31.12,10.58-49.02,15.42-77.78,31.89-16.7,9.57-37.23,19.81-45.38,38.09l-4.49-1.97c-2.39.99-.19,5.39-3,4.99C5.89,267.13.05,260.73,0,257.15c-.02-1.57,2.63-9.44,3.41-11.49,17.21-45.02,77.99-113.66,110.9-150.81,7.16-8.08,15.48-15.2,22.49-23.46-10.44-.58-21.99,5.02-32.52,1.55-4.61-1.52-7.23-5.79-11.53-7.69-1.75-4.64-1.78-9.08.75-13.43,3.33-1.91,6.12,1.24,9.11,1.82,17.25,3.38,29.6-3.45,45.7-4.72,2.85-.22,7.61,1.72,11.48,0l-1.99,1.97,3.87.94c.55-1.51,1.22-3.07,2.29-4.3,14.25-16.36,40.18-40.26,63.47-28.77,24.3,11.99,20.7,48.61,17.31,71.08ZM227.39,28.31c-8.11-7.67-23.22.89-30.76,6.01-17.57,11.94-36.06,37.96-41.33,58.55-1.51,5.89-3.05,11.82-2.5,17.96,2.66.55,1.72-.68,2.48-1.97,6.53-11.08,17.09-33.39,26.46-41.5,4.29-3.71,8.69-4.33,12.6.45s-1.84,6.2-4.99,10.15c-3.52,4.44-27.55,41.06-24.56,43.85,22.21-.55,41.86-11.74,61.02-21.65,5.62-15.23,14.08-60.04,1.58-71.86ZM138.7,178.65c-.94-17.92,2.74-35.6,8.76-52.35-11.47-10.49-8.88-24.02-5.17-37.43.29-1.05,1.22-3.33.01-3.98-21.36,26.17-43.68,51.76-64.43,78.41-14.58,18.72-28.92,38.09-41,58.38l23.09-14.36c24.83-13.04,50.96-23.65,78.73-28.67ZM152.79,157.28v18.47c4.52-.1,16.52-2.64,20.26-1.02,1.22.53,1.01,3.71,2.72,4.53-3.2.48-3.86,3.08-5.33,4.21-.79.61-2.42.11-2.66.29-.18.14,1.75,2.29-1.35,3.6-2.07.87-5.76.4-6.64,2.37,7.11,1.1,11.88-3.76,17.92-6.06l-.96-1.91,3.03-.51-2-1.49c6.51-.25,13.09-10.37,16.81-15.66,9.83-14.02,17.37-30.07,24.17-45.75-7.36,2.65-14.04,6.87-21.46,9.51-11.66,4.16-25.42,7.77-37.5,3.95l-7.01,25.47Z"/>
    <path class="cls-1" d="M348.65,33.94c9.81.17,19.7-.15,29.47-1,28.5-2.48,56.65-9.3,85.78-7.59,3.99.23,18.27,2.11,18.67,7.12-2.66.76-1.93,4.81-3.12,7.35l-9.88.13,1.01,1.98c-25.31,1.53-50.79,2.24-75.95,7.01l6.87,15.26-16.07,23.96-.78,3.7,12.57-3.91.91,1.91c4.34-5.46,9.7-2.35,15.92-3.07,5.76-.67,13.16-5.56,18.54-.42l-2.97,2.52,1.99,3.97c-1.43.17-10.97,2.52-8.99,5l1.98.99-7.09,1.48.1,2.52c-2.5.57-1.55-.71-2.61-2.06l-9.38,2.08,1.99.99c-.89,2.91-3.99.88-6.59,1.79-1.51.53-1.47,2.17-2.04,2.24-2.39.29-4.7-2.62-7.36-2.03l1.99,2.98-9.56,1.89-3.43-2.87.77,1.79c-2.42,3.76-8.42,3.44-10.36,5.11-.25.21-3.49,3.95-3.96,4.49-4.42,5.11-2.6,6.37-4.49,10.92-1.17,2.8-3.67,4.16-4.72,6.36-1.46,3.06-.99,7.57-2.76,10.22-1.07,1.61-3.02,1.89-3.93,3.03-.25.31-.02,5.48-.61,7.19-.25.73-1.43.77-1.8,1.63-2.53,5.9-7.38,15.17-9.1,20.67-.16.51-.27,1.63.48,1.47,1.79-1.83,4.25-2.58,6.53-3.51,11.65-4.73,27.25-9.08,40.51-12.39,14.87-3.72,29.98-7.18,45.34-7.96-.15,6.37,10.18,1.21,9.04,9.84l-7.92,1.12-.04,2.43c-2.1-.89-1.9.99-2.81,1.36-4.59,1.89-14.99,4.74-19.95,5.87-3.33.76-7.76.82-11.25,1.26l1.01,1.98c-4.3-.21-5.59,3.49-11.01,2.01l1.01,1.98c-6.65.97-14.29,2.7-20.78,4.71-8.05,2.49-16.65,6.52-23.96,9.17-7.85,2.85-13.64,7.26-19.07-1.54-7.54-12.22-4.21-19.88.68-31.98,5.94-14.7,14.14-28.59,20.16-43.26-.47-.46-10,3.17-11.35,4.13-1.71,1.2-2.59,3.5-2.83,3.64-5.97,3.35-5.65-10.69-8.78-12.76-4.8,24.37-9.48,47.39-9.05,72.43.04,2.26,1.41,4.77.9,6.72-1.56,6.01-14,5.03-17.96,2.31-1.72-1.98,1.43-16.06,1.08-19.93-1.13-12.45-11.98-38.06-15.27-52.73-2.47-11.02-4.15-22.57-5.69-33.76-1.44-.24-1.35,1.73-1.69,2.78-1.11,3.42-2.02,7.6-2.83,11.16-4.94,21.67-9.24,43.66-12.19,65.71-1.98,4.28-15.65,2.78-16.28-2.31,6.18-43.15,18.34-84.92,27.26-127.51,1-4.34,11.78-2.35,12.93,1.01l1.76-.74c1.7,10.68,1.92,21.58,3.15,32.32,2.59,22.51,5.38,44.44,9.97,66.93l2.91,7.56,3.26-21.21c9.93-42.73,23.51-84.34,40.73-124.57l2.97,1.99,3-4.99v10.38c-2.76,7.76-.15,15.77-4.99,23.56ZM389.62,49.93c-12.88-.14-26.72,3.33-39.53,2.05-2.97-.3-4.04-.47-5.93-3.04l-1.01.96-16.47,61.92c4.45-1.39,7.54-4.49,12.01-6.47,6.52-2.88,14.15-3.94,20.68-6.8,7.38-11.09,12.86-23.89,20.23-34.93.77-1.15,2.72-1.41,3.49-2.74l6.53-10.96Z"/>
    <path class="cls-1" d="M555.79,56.63c.81,1.1,4.07,1.76,4.49,2.49,2.37,4.02-7.05,32.39-7.78,38.74l22.6-5.95c5.85-9.73,11.43-22.37,19.34-30.51,3.97-4.09,7.65-8.24,13.76-5.71,1.17.49,10.69,8.77,10.83,9.68,1.38,9.15-7.48,7.19-12.57,3.54,1.57,4.25-3.34,5.06-4.66,7.32-.9,1.55-.63,3.57-1.54,5.01-.77,1.22-5.51,6.02-5.79,7.18l1.45,2.33c1.94-.7,9.33-2.66,8.53,1.13-3.15-.21-6.24.3-9.23,1.26-7.96,2.56-4.83,5.4-7.27,11.24-3.13,7.51-6.33,12.81-8,21.44-.62,3.18,2.02,8.78-2.47,9.02l2.04,1.5c-3.3,4.31-.4,5.3-.3,7.75.16,3.8-3.73,11.51,4.28,9.25,10.94-3.08,32.21-29.68,38.12-39.82,3.71-6.38,11.17-21.8,7.35-28.72-3.71-.55-9.62-1.05-7.57-6.43,10.67-4.79,24.49,6.12,24.83,17,.22,6.82-3.78,12.46-3.31,18.48.7-1.11,2.52-1.49,3.19-2.3,14.35-17.28,31.47-34.39,47.78-49.63,5.82-5.44,12.06-10.62,17.99-15.96,3.88,1.98,4.23,8.56,5.79,10.68.81,1.1,4.06,1.76,4.49,2.49,2.37,4.01-7.04,32.38-7.78,38.74,1.15,1.15,26.67-7.6,31.49-7.99,5.81-.47,12.88,1.19,18.98-.01l1.49,2.01c-3.77-.35-7.25.72-10.79,1.72-13.52,3.82-24.16,13.52-37.89,19.05-2.19.88-4.92-.84-6.87,2.56-5.69,15.88-6.47,35.1-11.66,50.8-2.67,8.05-13.42,4.73-13.58-.69l8.84-43.48c-9.99,3.34-20.07,7.34-30.18,10.27-3.67,1.06-13.94,4.46-16.75,3.2s-3.13-6-5.05-8.47l-2.96,1.97c-.04-1.2-2.7-5.07-4-3.98-2.85,3.91-5.69,9.28-8.6,12.89-8.58,10.61-24.89,27.52-38.99,28.93-6.98.7-18.88-3.85-22.78-9.97-6.01-9.43-3.59-25.54-1.1-35.86,1.17-4.83,4.52-9.95,4-14.98-3.64,2.39-7.34,4.93-11.43,6.56-2.89,1.15-5.82-.65-7.96,3.24l-11.57,51.14c-1.47,6.44-13.18,4.43-13.36-1.47l8.84-43.48c-9.99,3.34-20.07,7.34-30.18,10.27-3.67,1.06-13.94,4.46-16.75,3.2s-3.13-6-5.05-8.47l-2.96,1.97-3.73-6.5c2.75-2.55,4.78-5.7,7.17-8.53,14.97-17.7,34.05-36.02,51-51.86,5.82-5.44,12.06-10.62,17.99-15.96,3.88,1.98,4.23,8.56,5.79,10.68ZM498.54,115.82l38.45-12.99,7.5-32.93c-1.14-1.54-15.04,14.48-16.25,15.69-7.39,7.38-16.2,15.3-24.68,22.82-.92.81-.73,2.6-1.3,3.15-1.29,1.23-3.74-.16-3.71,4.27ZM660.43,115.82l38.45-12.99,7.5-32.93c-1.14-1.54-15.04,14.48-16.25,15.69-7.39,7.38-16.2,15.3-24.68,22.82-.92.81-.73,2.6-1.3,3.15-1.29,1.23-3.74-.16-3.71,4.27Z"/>
</svg>